<svg id="mySVG" width="360" height="200"><line x1="170.23619499999998" y1="92.154152" x2="150.168206" y2="93.395985" stroke-width="2" stroke="black"></line><line x1="170.23619499999998" y1="92.154152" x2="156.446066" y2="78.047113" stroke-width="2" stroke="black"></line><line x1="99.954968" y1="53.592349" x2="97.21083899999999" y2="71.997625" stroke-width="2" stroke="black"></line><line x1="99.954968" y1="53.592349" x2="111.84920699999999" y2="63.32167" stroke-width="2" stroke="black"></line><line x1="99.954968" y1="53.592349" x2="111.291907" y2="39.837244999999996" stroke-width="2" stroke="black"></line><line x1="139.916754" y1="81.293024" x2="128.288547" y2="92.29791999999999" stroke-width="2" stroke="black"></line><line x1="139.916754" y1="81.293024" x2="150.168206" y2="93.395985" stroke-width="2" stroke="black"></line><line x1="139.916754" y1="81.293024" x2="156.446066" y2="78.047113" stroke-width="2" stroke="black"></line><line x1="139.916754" y1="81.293024" x2="140.539009" y2="65.057356" stroke-width="2" stroke="black"></line><line x1="139.916754" y1="81.293024" x2="126.398586" y2="71.952435" stroke-width="2" stroke="black"></line><line x1="134.522389" y1="7.283485" x2="115.86188" y2="7.4668209999999995" stroke-width="2" stroke="black"></line><line x1="134.522389" y1="7.283485" x2="121.31400099999999" y2="22.609593" stroke-width="2" stroke="black"></line><line x1="140.619913" y1="49.870132999999996" x2="140.539009" y2="65.057356" stroke-width="2" stroke="black"></line><line x1="140.619913" y1="49.870132999999996" x2="157.53112099999998" y2="46.846004" stroke-width="2" stroke="black"></line><line x1="49.831336" y1="37.176528999999995" x2="34.085267" y2="44.616064" stroke-width="2" stroke="black"></line><line x1="49.831336" y1="37.176528999999995" x2="49.870326999999996" y2="55.435821999999995" stroke-width="2" stroke="black"></line><line x1="49.831336" y1="37.176528999999995" x2="38.259448" y2="24.381473999999997" stroke-width="2" stroke="black"></line><line x1="126.398586" y1="71.952435" x2="112.931698" y2="80.059355" stroke-width="2" stroke="black"></line><line x1="126.398586" y1="71.952435" x2="128.288547" y2="92.29791999999999" stroke-width="2" stroke="black"></line><line x1="126.398586" y1="71.952435" x2="140.539009" y2="65.057356" stroke-width="2" stroke="black"></line><line x1="126.398586" y1="71.952435" x2="111.84920699999999" y2="63.32167" stroke-width="2" stroke="black"></line><line x1="173.0661" y1="41.799321" x2="157.53112099999998" y2="46.846004" stroke-width="2" stroke="black"></line><line x1="173.0661" y1="41.799321" x2="172.19571" y2="58.78893" stroke-width="2" stroke="black"></line><line x1="173.0661" y1="41.799321" x2="172.813468" y2="23.623089999999998" stroke-width="2" stroke="black"></line><line x1="173.0661" y1="41.799321" x2="160.733568" y2="31.635794999999998" stroke-width="2" stroke="black"></line><line x1="157.53112099999998" y1="46.846004" x2="156.32908799999998" y2="62.053473" stroke-width="2" stroke="black"></line><line x1="157.53112099999998" y1="46.846004" x2="172.19571" y2="58.78893" stroke-width="2" stroke="black"></line><line x1="92.03157999999999" y1="90.42309399999999" x2="74.89291899999999" y2="92.134951" stroke-width="2" stroke="black"></line><line x1="92.03157999999999" y1="90.42309399999999" x2="112.931698" y2="80.059355" stroke-width="2" stroke="black"></line><line x1="92.03157999999999" y1="90.42309399999999" x2="81.82946" y2="72.965856" stroke-width="2" stroke="black"></line><line x1="81.82946" y1="72.965856" x2="65.931922" y2="78.357168" stroke-width="2" stroke="black"></line><line x1="81.82946" y1="72.965856" x2="97.21083899999999" y2="71.997625" stroke-width="2" stroke="black"></line><line x1="81.82946" y1="72.965856" x2="82.71721099999999" y2="53.275506" stroke-width="2" stroke="black"></line><line x1="156.446066" y1="78.047113" x2="150.168206" y2="93.395985" stroke-width="2" stroke="black"></line><line x1="156.446066" y1="78.047113" x2="172.34695" y2="75.53046499999999" stroke-width="2" stroke="black"></line><line x1="156.446066" y1="78.047113" x2="156.32908799999998" y2="62.053473" stroke-width="2" stroke="black"></line><line x1="172.34695" y1="75.53046499999999" x2="156.32908799999998" y2="62.053473" stroke-width="2" stroke="black"></line><line x1="154.001892" y1="18.94116" x2="137.37593999999999" y2="21.868793" stroke-width="2" stroke="black"></line><line x1="154.001892" y1="18.94116" x2="145.365306" y2="34.766743999999996" stroke-width="2" stroke="black"></line><line x1="154.001892" y1="18.94116" x2="160.733568" y2="31.635794999999998" stroke-width="2" stroke="black"></line><line x1="154.001892" y1="18.94116" x2="172.813468" y2="23.623089999999998" stroke-width="2" stroke="black"></line><line x1="154.001892" y1="18.94116" x2="171.077731" y2="7.912595" stroke-width="2" stroke="black"></line><line x1="154.001892" y1="18.94116" x2="153.044905" y2="6.11186" stroke-width="2" stroke="black"></line><line x1="137.37593999999999" y1="21.868793" x2="121.31400099999999" y2="22.609593" stroke-width="2" stroke="black"></line><line x1="137.37593999999999" y1="21.868793" x2="145.365306" y2="34.766743999999996" stroke-width="2" stroke="black"></line><line x1="137.37593999999999" y1="21.868793" x2="153.044905" y2="6.11186" stroke-width="2" stroke="black"></line><line x1="123.71750899999999" y1="53.488141" x2="111.84920699999999" y2="63.32167" stroke-width="2" stroke="black"></line><line x1="123.71750899999999" y1="53.488141" x2="111.291907" y2="39.837244999999996" stroke-width="2" stroke="black"></line><line x1="82.71721099999999" y1="53.275506" x2="92.841448" y2="38.015766" stroke-width="2" stroke="black"></line><line x1="82.71721099999999" y1="53.275506" x2="75.898629" y2="31.205084999999997" stroke-width="2" stroke="black"></line><line x1="82.71721099999999" y1="53.275506" x2="65.807133" y2="44.133053" stroke-width="2" stroke="black"></line><line x1="160.733568" y1="31.635794999999998" x2="145.365306" y2="34.766743999999996" stroke-width="2" stroke="black"></line><line x1="65.931922" y1="78.357168" x2="49.738692" y2="73.990045" stroke-width="2" stroke="black"></line><line x1="171.077731" y1="7.912595" x2="172.813468" y2="23.623089999999998" stroke-width="2" stroke="black"></line><line x1="38.259448" y1="24.381473999999997" x2="21.002345" y2="28.813571" stroke-width="2" stroke="black"></line><line x1="38.259448" y1="24.381473999999997" x2="59.877738" y2="23.408445999999998" stroke-width="2" stroke="black"></line><line x1="38.259448" y1="24.381473999999997" x2="25.229295" y2="8.827898" stroke-width="2" stroke="black"></line><line x1="108.930065" y1="93.286903" x2="128.288547" y2="92.29791999999999" stroke-width="2" stroke="black"></line><line x1="111.291907" y1="39.837244999999996" x2="111.84920699999999" y2="63.32167" stroke-width="2" stroke="black"></line><line x1="111.291907" y1="39.837244999999996" x2="105.1289" y2="23.19729" stroke-width="2" stroke="black"></line><line x1="55.589788999999996" y1="92.290742" x2="74.89291899999999" y2="92.134951" stroke-width="2" stroke="black"></line><line x1="55.589788999999996" y1="92.290742" x2="49.738692" y2="73.990045" stroke-width="2" stroke="black"></line><line x1="55.589788999999996" y1="92.290742" x2="38.244144" y2="88.995255" stroke-width="2" stroke="black"></line><line x1="75.898629" y1="31.205084999999997" x2="65.807133" y2="44.133053" stroke-width="2" stroke="black"></line><line x1="75.898629" y1="31.205084999999997" x2="92.841448" y2="38.015766" stroke-width="2" stroke="black"></line><line x1="75.898629" y1="31.205084999999997" x2="78.044286" y2="9.177507" stroke-width="2" stroke="black"></line><line x1="75.898629" y1="31.205084999999997" x2="59.877738" y2="23.408445999999998" stroke-width="2" stroke="black"></line><line x1="6.71918" y1="63.366721999999996" x2="6.903014" y2="88.201152" stroke-width="2" stroke="black"></line><line x1="6.71918" y1="63.366721999999996" x2="19.249299" y2="52.123168" stroke-width="2" stroke="black"></line><line x1="128.396884" y1="37.375446" x2="145.365306" y2="34.766743999999996" stroke-width="2" stroke="black"></line><line x1="6.95916" y1="37.690618" x2="19.249299" y2="52.123168" stroke-width="2" stroke="black"></line><line x1="19.249299" y1="52.123168" x2="34.300176" y2="65.825709" stroke-width="2" stroke="black"></line><line x1="19.249299" y1="52.123168" x2="21.002345" y2="28.813571" stroke-width="2" stroke="black"></line><line x1="49.738692" y1="73.990045" x2="38.244144" y2="88.995255" stroke-width="2" stroke="black"></line><line x1="49.738692" y1="73.990045" x2="49.870326999999996" y2="55.435821999999995" stroke-width="2" stroke="black"></line><line x1="140.539009" y1="65.057356" x2="156.32908799999998" y2="62.053473" stroke-width="2" stroke="black"></line><line x1="6.903014" y1="88.201152" x2="20.294681999999998" y2="74.68260699999999" stroke-width="2" stroke="black"></line><line x1="38.244144" y1="88.995255" x2="22.540689" y2="92.340063" stroke-width="2" stroke="black"></line><line x1="38.244144" y1="88.995255" x2="34.300176" y2="65.825709" stroke-width="2" stroke="black"></line><line x1="38.244144" y1="88.995255" x2="20.294681999999998" y2="74.68260699999999" stroke-width="2" stroke="black"></line><line x1="59.877738" y1="23.408445999999998" x2="65.807133" y2="44.133053" stroke-width="2" stroke="black"></line><line x1="59.877738" y1="23.408445999999998" x2="78.044286" y2="9.177507" stroke-width="2" stroke="black"></line><line x1="88.654286" y1="21.521666" x2="92.841448" y2="38.015766" stroke-width="2" stroke="black"></line><line x1="88.654286" y1="21.521666" x2="97.256338" y2="7.232557" stroke-width="2" stroke="black"></line><line x1="25.229295" y1="8.827898" x2="7.878971" y2="12.110244999999999" stroke-width="2" stroke="black"></line><line x1="25.229295" y1="8.827898" x2="21.002345" y2="28.813571" stroke-width="2" stroke="black"></line><line x1="7.878971" y1="12.110244999999999" x2="21.002345" y2="28.813571" stroke-width="2" stroke="black"></line><line x1="121.31400099999999" y1="22.609593" x2="105.1289" y2="23.19729" stroke-width="2" stroke="black"></line><line x1="92.841448" y1="38.015766" x2="105.1289" y2="23.19729" stroke-width="2" stroke="black"></line><line x1="112.931698" y1="80.059355" x2="128.288547" y2="92.29791999999999" stroke-width="2" stroke="black"></line><line x1="105.1289" y1="23.19729" x2="97.256338" y2="7.232557" stroke-width="2" stroke="black"></line><line x1="97.256338" y1="7.232557" x2="78.044286" y2="9.177507" stroke-width="2" stroke="black"></line><line x1="128.288547" y1="92.29791999999999" x2="150.168206" y2="93.395985" stroke-width="2" stroke="black"></line><circle cx="170.23619471879897" cy="92.1541515080377" r="5.875498614583267"></circle><circle cx="99.95496801876233" cy="53.59234882025167" r="5.875498614583267"></circle><circle cx="139.91675443126894" cy="81.29302361486396" r="5.875498614583267"></circle><circle cx="134.52238942842783" cy="7.283484866539897" r="5.875498614583267"></circle><circle cx="140.6199129038735" cy="49.870133276456656" r="5.875498614583267"></circle><circle cx="49.83133573112106" cy="37.176529160851196" r="5.875498614583267"></circle><circle cx="126.39858564776611" cy="71.95243486168404" r="5.875498614583267"></circle><circle cx="173.0660997638977" cy="41.79932092292415" r="5.875498614583267"></circle><circle cx="157.53112057171066" cy="46.84600441772429" r="5.875498614583267"></circle><circle cx="92.03158023872163" cy="90.42309414283238" r="5.875498614583267"></circle><circle cx="81.82945950966325" cy="72.96585635645113" r="5.875498614583267"></circle><circle cx="156.4460662227637" cy="78.04711314263653" r="5.875498614583267"></circle><circle cx="172.34695007476483" cy="75.53046513184094" r="5.875498614583267"></circle><circle cx="154.001892064513" cy="18.941160272391105" r="5.875498614583267"></circle><circle cx="137.37594048500574" cy="21.86879334978228" r="5.875498614583267"></circle><circle cx="123.71750941700095" cy="53.488141209200116" r="5.875498614583267"></circle><circle cx="82.7172112950915" cy="53.27550595545304" r="5.875498614583267"></circle><circle cx="160.7335675739254" cy="31.635795058514443" r="5.875498614583267"></circle><circle cx="65.93192155244883" cy="78.35716808187698" r="5.875498614583267"></circle><circle cx="171.07773114796797" cy="7.912594604652705" r="5.875498614583267"></circle><circle cx="38.25944804808629" cy="24.38147358984724" r="5.875498614583267"></circle><circle cx="108.93006500799625" cy="93.28690280901763" r="5.875498614583267"></circle><circle cx="111.29190663221952" cy="39.83724502625436" r="5.875498614583267"></circle><circle cx="61.51724911241682" cy="7.6138632702589835" r="5.875498614583267"></circle><circle cx="55.589789019734646" cy="92.29074178074542" r="5.875498614583267"></circle><circle cx="75.89862893025595" cy="31.205085332436894" r="5.875498614583267"></circle><circle cx="6.7191803566336725" cy="63.36672222519143" r="5.875498614583267"></circle><circle cx="128.3968840212024" cy="37.375445809172994" r="5.875498614583267"></circle><circle cx="6.959159767224615" cy="37.690618118577795" r="5.875498614583267"></circle><circle cx="19.2492990288603" cy="52.12316785582209" r="5.875498614583267"></circle><circle cx="49.73869203297541" cy="73.990045382135" r="5.875498614583267"></circle><circle cx="140.53900884365146" cy="65.0573564571175" r="5.875498614583267"></circle><circle cx="153.04490492986514" cy="6.111859634867679" r="5.875498614583267"></circle><circle cx="6.903014061182999" cy="88.2011518105697" r="5.875498614583267"></circle><circle cx="115.86188034247606" cy="7.466820807568156" r="5.875498614583267"></circle><circle cx="38.244143679201756" cy="88.99525536572416" r="5.875498614583267"></circle><circle cx="20.294681657377613" cy="74.68260707449323" r="5.875498614583267"></circle><circle cx="59.87773756238287" cy="23.408445842571236" r="5.875498614583267"></circle><circle cx="172.1957100437043" cy="58.788930331348276" r="5.875498614583267"></circle><circle cx="172.81346814493045" cy="23.62309020576036" r="5.875498614583267"></circle><circle cx="97.21083925368144" cy="71.99762506202106" r="5.875498614583267"></circle><circle cx="88.6542864270503" cy="21.521665665209895" r="5.875498614583267"></circle><circle cx="25.229295183875234" cy="8.827898242109537" r="5.875498614583267"></circle><circle cx="111.84920655296217" cy="63.32166999573564" r="5.875498614583267"></circle><circle cx="7.8789710211442765" cy="12.11024497531132" r="5.875498614583267"></circle><circle cx="22.540688863160483" cy="92.34006339203975" r="5.875498614583267"></circle><circle cx="66.74155734603171" cy="61.687339494107036" r="5.875498614583267"></circle><circle cx="65.80713257400159" cy="44.13305318044861" r="5.875498614583267"></circle><circle cx="121.31400101321039" cy="22.60959311124295" r="5.875498614583267"></circle><circle cx="92.84144765229469" cy="38.015765793147764" r="5.875498614583267"></circle><circle cx="112.9316981473119" cy="80.05935545725255" r="5.875498614583267"></circle><circle cx="21.002345454262088" cy="28.81357131003757" r="5.875498614583267"></circle><circle cx="74.89291900903557" cy="92.1349512960419" r="5.875498614583267"></circle><circle cx="34.085267449501224" cy="44.61606403960713" r="5.875498614583267"></circle><circle cx="105.12890038512337" cy="23.197290126750005" r="5.875498614583267"></circle><circle cx="97.25633779488088" cy="7.232557427413921" r="5.875498614583267"></circle><circle cx="145.36530618904848" cy="34.76674395761176" r="5.875498614583267"></circle><circle cx="49.87032731524812" cy="55.43582238057011" r="5.875498614583267"></circle><circle cx="128.28854733807842" cy="92.29792030884211" r="5.875498614583267"></circle><circle cx="156.3290878985698" cy="62.05347338146175" r="5.875498614583267"></circle><circle cx="34.30017550410596" cy="65.82570901049407" r="5.875498614583267"></circle><circle cx="150.16820622880144" cy="93.39598471739485" r="5.875498614583267"></circle><circle cx="78.04428627529538" cy="9.17750736645912" r="5.875498614583267"></circle><circle cx="44.06466808088462" cy="8.449221102164408" r="5.875498614583267"></circle></svg>